<svg width="77" height="38" viewBox="0 0 77 38" fill="none" xmlns="http://www.w3.org/2000/svg">
<path fill-rule="evenodd" clip-rule="evenodd" d="M28.3689 3.79869C23.9333 3.93222 20.6089 6.30008 19.1841 10.1886C17.8055 13.0208 16.8015 17.6358 15.0649 20.0873C13.2235 18.1089 9.89934 17.0395 7.48188 17.3414C4.4205 17.7237 2.19667 19.4045 1.33399 21.6872C0.0628746 25.0508 0.884345 28.3589 3.79171 30.0854C6.86811 31.9122 10.9166 31.0512 14.5223 27.4467C15.0225 26.9467 15.4817 26.2106 16.0606 25.6052C16.56 26.2501 18.3816 28.0257 18.9444 28.5301C21.3989 30.7302 25.2384 30.8976 28.4609 30.2042C29.5658 29.9665 30.6989 29.5679 31.6759 28.9137C32.2766 28.5114 33.1694 27.8306 33.8009 27.2442C33.9558 27.1005 34.1095 26.9512 34.262 26.7961C36.5443 24.1502 37.5743 19.5522 38.6697 16.2489L38.9564 15.4066L39.0923 15.0392L39.2432 14.5643C36.36 13.8946 34.0713 15.8394 32.8017 18.4692C31.9433 20.2471 31.6759 23.569 30.0096 24.6445C29.7823 24.8555 29.5574 25.0307 29.3362 25.1765C29.1704 25.2857 28.9976 25.3911 28.8204 25.4922C26.4611 26.8396 23.5825 26.4946 21.0828 25.43C19.5391 24.7685 17.9973 23.1771 17.9973 23.1771C21.131 18.7522 26.8217 11.3926 28.3689 3.79869Z" fill="#7836E3"/>
<path d="M14.0341 23.4137C12.2873 22.1238 10.689 21.2264 9.30468 21.3374C8.03596 21.4392 7.03397 21.9573 6.53629 22.837C6.14162 23.5347 5.8442 25.1997 7.34371 26.1821C9.07397 27.3157 12.0566 25.815 14.0341 23.4137Z" fill="white"/>
<path d="M56.4126 30.2824C53.7727 30.2824 51.6326 28.1423 51.6326 25.5024V17.9509C51.6326 17.9255 51.612 17.9048 51.5866 17.9048C49.9337 17.9048 48.5938 16.5649 48.5938 14.912V14.355H52.0101C52.3561 14.355 52.5198 14.7816 52.2627 15.013C52.0198 15.2317 51.6326 15.0593 51.6326 14.7325V13.2868C51.6326 11.2135 52.3551 9.64334 53.4314 8.59617C54.5157 7.51182 59.3534 5.84376 61.1925 11.1508C60.897 11.046 60.5594 10.9726 60.1795 10.9307C59.7997 10.8679 59.4304 10.8365 59.0716 10.8365C58.5862 10.8365 58.1325 10.9202 57.7104 11.0878C57.3095 11.2553 56.9824 11.5381 56.7291 11.936C56.497 12.313 56.3809 12.8261 56.3809 13.4753V14.5656C56.3809 14.7617 56.1363 14.8513 56.0096 14.7016L55.8422 14.5038C55.7924 14.445 55.8342 14.355 55.9112 14.355H56.8829C58.8434 14.355 60.4328 15.9443 60.4328 17.9048H56.4126V30.2824Z" fill="#7836E3"/>
<path d="M39.865 14.5458C40.7803 14.0673 41.8476 13.9346 43.0294 13.9346C44.9099 13.9346 46.3151 14.4827 47.2448 15.5789C48.1957 16.654 48.6711 18.3299 48.6711 20.6066V30.2826C46.0279 30.2826 43.8851 28.1398 43.8851 25.4966V20.8279C43.8851 19.6685 43.6738 18.8463 43.2512 18.3615C42.8286 17.8766 42.1947 17.6342 41.3495 17.6342C40.4371 17.6342 39.6636 17.7793 39.0664 18.2824C39.2458 17.6178 39.4013 16.946 39.5322 16.2683L39.865 14.5458Z" fill="#7836E3"/>
<path fill-rule="evenodd" clip-rule="evenodd" d="M69.5098 26.485C69.192 28.1894 68.6398 29.3762 68.0255 30.2051C67.6671 30.2564 67.2944 30.2821 66.9074 30.2821C65.0268 30.2821 63.6216 29.734 62.6919 28.6378C61.7411 27.5627 61.2656 25.8868 61.2656 23.6101V13.9341C63.9088 13.9341 66.0516 16.0768 66.0516 18.72L66.0516 23.3887C66.0516 24.5482 66.2629 25.3703 66.6855 25.8552C67.1081 26.34 67.742 26.5824 68.5872 26.5824C68.9151 26.5824 69.2226 26.55 69.5098 26.485Z" fill="#7836E3"/>
<path d="M39.1879 10.833C37.7564 11.109 36.6038 11.6711 35.6707 13.375C33.5323 10.1673 36.2068 5.60394 39.5684 6.51805C39.9221 6.61424 40.2236 6.8403 40.4771 7.10507C41.7785 8.46433 41.0358 10.4768 39.1879 10.833Z" fill="#B894F1"/>
<path d="M36.6341 30.2796C35.942 23.5893 38.7794 19.5245 39.2408 14.5645L34.5115 18.0249L33.3083 26.7681C33.0379 28.7332 34.6573 30.443 36.6341 30.2796Z" fill="#7836E3"/>
<path fill-rule="evenodd" clip-rule="evenodd" d="M71.3539 34.5956C67.3899 37.5763 62.1775 37.2668 58.8413 36.337C59.5784 33.6921 62.3853 32.1752 65.1101 31.8371C66.5563 31.6577 67.816 31.2443 68.4091 30.5957C68.7431 30.2305 69.4538 29.2559 69.7588 27.7873C70.1539 25.8849 70.3231 23.1692 70.4209 19.931C70.5086 17.0273 72.5536 14.5465 75.3999 13.9651C75.3999 24.1045 75.549 31.4409 71.3539 34.5956Z" fill="#7836E3"/>
</svg>
